 <svg
        width="430"
        height="72"
        viewBox="0 0 441 72"
        fill="none"
        xmlns="http://www.w3.org/2000/svg"
      >
        <mask
          id="path-1-outside-1_31_3"
          maskUnits="userSpaceOnUse"
          x="-2"
          y="-2"
          width="445"
          height="76"
          fill="black"
        >
          <rect fill="white" x="-2" y="-2" width="445" height="76" />
          <path d="M12.7715 71H1.44336C1.11784 71 0.955078 70.8372 0.955078 70.5117L1.05273 1.81055C1.05273 1.55013 1.18294 1.41992 1.44336 1.41992H12.6738C12.9342 1.41992 13.0645 1.55013 13.0645 1.81055L13.1621 70.5117C13.1621 70.8372 13.0319 71 12.7715 71ZM32.8398 71H22.8301C22.3092 71 22.0488 70.7721 22.0488 70.3164L21.9512 2.20117C21.9512 1.68034 22.2116 1.41992 22.7324 1.41992H31.7656L48.6602 40.8242L48.1719 2.20117C48.1719 1.68034 48.4648 1.41992 49.0508 1.41992H58.9629C59.3535 1.41992 59.5488 1.68034 59.5488 2.20117L59.6465 70.4141C59.6465 70.8047 59.4837 71 59.1582 71H50.3691L33.0352 34.1836L33.7676 70.2188C33.7676 70.7396 33.4583 71 32.8398 71ZM79.2266 71H69.2168C68.696 71 68.4355 70.7721 68.4355 70.3164L68.3379 2.20117C68.3379 1.68034 68.5983 1.41992 69.1191 1.41992H78.1523L95.0469 40.8242L94.5586 2.20117C94.5586 1.68034 94.8516 1.41992 95.4375 1.41992H105.35C105.74 1.41992 105.936 1.68034 105.936 2.20117L106.033 70.4141C106.033 70.8047 105.87 71 105.545 71H96.7559L79.4219 34.1836L80.1543 70.2188C80.1543 70.7396 79.8451 71 79.2266 71ZM133.23 71.9766C129.682 71.9766 126.411 71.0651 123.416 69.2422C120.454 67.4193 118.061 64.9941 116.238 61.9668C114.448 58.9069 113.553 55.554 113.553 51.9082L113.65 20.2188C113.65 16.5078 114.546 13.1712 116.336 10.209C118.094 7.21419 120.47 4.82161 123.465 3.03125C126.46 1.20833 129.715 0.296875 133.23 0.296875C136.876 0.296875 140.148 1.19206 143.045 2.98242C145.975 4.77279 148.318 7.18164 150.076 10.209C151.867 13.2038 152.762 16.5404 152.762 20.2188L152.859 51.9082C152.859 55.554 151.98 58.8906 150.223 61.918C148.432 64.9779 146.056 67.4193 143.094 69.2422C140.132 71.0651 136.844 71.9766 133.23 71.9766ZM133.23 59.916C135.249 59.916 137.007 59.1022 138.504 57.4746C140.001 55.8145 140.75 53.959 140.75 51.9082L140.652 20.2188C140.652 18.0052 139.952 16.1335 138.553 14.6035C137.153 13.0736 135.379 12.3086 133.23 12.3086C131.18 12.3086 129.422 13.0573 127.957 14.5547C126.492 16.0521 125.76 17.9401 125.76 20.2188V51.9082C125.76 54.0892 126.492 55.9772 127.957 57.5723C129.422 59.1348 131.18 59.916 133.23 59.916ZM183.768 71H171.658C171.365 71 171.202 70.8372 171.17 70.5117L157.352 1.81055C157.286 1.55013 157.417 1.41992 157.742 1.41992H169.07C169.331 1.41992 169.493 1.55013 169.559 1.81055L177.762 47.6113L185.77 1.81055C185.835 1.55013 185.997 1.41992 186.258 1.41992H197.439C197.798 1.41992 197.928 1.55013 197.83 1.81055L184.256 70.5117C184.223 70.8372 184.061 71 183.768 71ZM221.512 71.9766C218.029 71.9766 214.79 71.0651 211.795 69.2422C208.833 67.4193 206.44 65.0104 204.617 62.0156C202.827 59.0208 201.932 55.7168 201.932 52.1035V45.9023C201.932 43.1029 202.469 40.4824 203.543 38.041C204.617 35.5996 206.049 33.4512 207.84 31.5957C206.375 30.0007 205.219 28.1289 204.373 25.9805C203.559 23.7995 203.152 21.472 203.152 18.998C203.152 15.5801 203.966 12.4225 205.594 9.52539C207.221 6.69336 209.435 4.44727 212.234 2.78711C215.034 1.12695 218.126 0.296875 221.512 0.296875C224.93 0.296875 228.022 1.14323 230.789 2.83594C233.556 4.52865 235.77 6.79102 237.43 9.62305C239.09 12.4225 239.92 15.5475 239.92 18.998C239.92 21.472 239.497 23.7832 238.65 25.9316C237.837 28.0475 236.697 29.9355 235.232 31.5957C237.023 33.3861 238.439 35.5182 239.48 37.9922C240.522 40.4661 241.043 43.1029 241.043 45.9023V52.1035C241.043 55.7168 240.164 59.0371 238.406 62.0645C236.616 65.0918 234.256 67.5007 231.326 69.291C228.396 71.0814 225.125 71.9766 221.512 71.9766ZM221.512 25.6875C223.27 25.6875 224.751 25.0365 225.955 23.7344C227.192 22.4323 227.811 20.8535 227.811 18.998C227.811 17.1426 227.192 15.5475 225.955 14.2129C224.751 12.8783 223.27 12.2109 221.512 12.2109C219.786 12.2109 218.289 12.8783 217.02 14.2129C215.75 15.5475 215.115 17.1426 215.115 18.998C215.115 20.7884 215.75 22.3509 217.02 23.6855C218.289 25.0202 219.786 25.6875 221.512 25.6875ZM221.512 60.0137C223.595 60.0137 225.353 59.2487 226.785 57.7188C228.217 56.1888 228.934 54.3171 228.934 52.1035V45.9023C228.934 43.7539 228.217 41.8984 226.785 40.3359C225.353 38.7734 223.595 37.9922 221.512 37.9922C219.461 37.9922 217.703 38.7572 216.238 40.2871C214.773 41.8171 214.041 43.6888 214.041 45.9023V52.1035C214.041 54.2194 214.773 56.0749 216.238 57.6699C217.703 59.2324 219.461 60.0137 221.512 60.0137ZM307.303 71H274.979C274.718 71 274.588 70.8372 274.588 70.5117L274.686 1.9082C274.686 1.58268 274.848 1.41992 275.174 1.41992H286.307C286.632 1.41992 286.795 1.58268 286.795 1.9082L286.697 58.6953H307.303C307.628 58.6953 307.791 58.8581 307.791 59.1836V70.5117C307.791 70.8372 307.628 71 307.303 71ZM310.965 70.5117L323.367 1.81055C323.432 1.55013 323.595 1.41992 323.855 1.41992H338.357C338.618 1.41992 338.781 1.55013 338.846 1.81055L350.76 70.5117C350.792 70.8372 350.662 71 350.369 71H339.285C338.96 71 338.781 70.8372 338.748 70.5117L337.674 63.1875H324.051L322.977 70.5117C322.944 70.8372 322.781 71 322.488 71H311.355C311.095 71 310.965 70.8372 310.965 70.5117ZM330.545 24.418L326.053 52.4941H335.672L331.57 24.418L330.984 20.707L330.545 24.418ZM375.32 71H357.4C357.14 71 357.01 70.8372 357.01 70.5117L357.205 1.81055C357.205 1.55013 357.335 1.41992 357.596 1.41992H376.834C380.577 1.41992 383.979 2.33138 387.039 4.1543C390.034 5.97721 392.394 8.40234 394.119 11.4297C395.844 14.4245 396.707 17.6797 396.707 21.1953C396.707 24.0599 396.056 26.7292 394.754 29.2031C393.452 31.6771 391.906 33.679 390.115 35.209C392.036 37.1296 393.533 39.3594 394.607 41.8984C395.682 44.4375 396.219 47.1068 396.219 49.9062C396.219 53.7799 395.291 57.3118 393.436 60.502C391.548 63.6921 389.025 66.2474 385.867 68.168C382.71 70.056 379.194 71 375.32 71ZM376.834 13.2852H369.217V29.0078H376.834C379.145 29.0078 381.017 28.194 382.449 26.5664C383.882 24.9062 384.598 23.1159 384.598 21.1953C384.598 19.0794 383.833 17.2402 382.303 15.6777C380.773 14.0827 378.95 13.2852 376.834 13.2852ZM375.32 41.1172H369.217L369.119 58.793H375.32C377.729 58.793 379.796 57.9141 381.521 56.1562C383.247 54.3984 384.109 52.3151 384.109 49.9062C384.109 47.4974 383.247 45.4303 381.521 43.7051C379.796 41.9798 377.729 41.1172 375.32 41.1172ZM420.389 71.9766C416.84 71.9766 413.569 71.0651 410.574 69.2422C407.612 67.4193 405.236 64.9941 403.445 61.9668C401.688 58.9069 400.809 55.554 400.809 51.9082V47.3184C400.809 46.9603 400.971 46.7812 401.297 46.7812H412.527C412.788 46.7812 412.918 46.9603 412.918 47.3184V51.9082C412.918 54.0892 413.65 55.9772 415.115 57.5723C416.58 59.1348 418.338 59.916 420.389 59.916C422.472 59.916 424.246 59.1185 425.711 57.5234C427.176 55.8958 427.908 54.0241 427.908 51.9082C427.908 49.4668 426.313 47.3346 423.123 45.5117C422.602 45.1862 421.919 44.7956 421.072 44.3398C420.258 43.8516 419.282 43.2982 418.143 42.6797C417.003 42.0612 415.896 41.459 414.822 40.873C413.748 40.2546 412.706 39.6686 411.697 39.1152C408.051 36.9668 405.333 34.2812 403.543 31.0586C401.785 27.8034 400.906 24.1576 400.906 20.1211C400.906 16.4102 401.818 13.0573 403.641 10.0625C405.464 7.10026 407.84 4.75651 410.77 3.03125C413.732 1.27344 416.938 0.394531 420.389 0.394531C423.937 0.394531 427.192 1.27344 430.154 3.03125C433.117 4.82161 435.477 7.19792 437.234 10.1602C439.025 13.1224 439.92 16.4427 439.92 20.1211V28.3242C439.92 28.5846 439.79 28.7148 439.529 28.7148H428.299C428.038 28.7148 427.908 28.5846 427.908 28.3242L427.811 20.1211C427.811 17.7773 427.078 15.873 425.613 14.4082C424.148 12.9434 422.407 12.2109 420.389 12.2109C418.338 12.2109 416.58 12.9922 415.115 14.5547C413.65 16.1172 412.918 17.9727 412.918 20.1211C412.918 22.3021 413.374 24.125 414.285 25.5898C415.229 27.0547 416.938 28.4544 419.412 29.7891C419.673 29.9193 420.275 30.2448 421.219 30.7656C422.163 31.2865 423.204 31.8724 424.344 32.5234C425.516 33.1419 426.574 33.7116 427.518 34.2324C428.462 34.7207 429.031 35.0137 429.227 35.1113C432.547 36.9668 435.167 39.2454 437.088 41.9473C439.041 44.6491 440.018 47.9694 440.018 51.9082C440.018 55.7168 439.139 59.1348 437.381 62.1621C435.59 65.1895 433.214 67.582 430.252 69.3398C427.29 71.0977 424.002 71.9766 420.389 71.9766Z" />
        </mask>
        <path
          d="M0.955078 70.5117L-1.04492 70.5089V70.5117H0.955078ZM1.05273 1.81055L3.05273 1.81339V1.81055H1.05273ZM13.0645 1.81055L11.0645 1.81055L11.0645 1.81339L13.0645 1.81055ZM13.1621 70.5117L15.1621 70.5117L15.1621 70.5089L13.1621 70.5117ZM12.7715 69H1.44336V73H12.7715V69ZM1.44336 69C1.58889 69 2.06538 69.0377 2.49136 69.4637C2.91734 69.8897 2.95508 70.3662 2.95508 70.5117H-1.04492C-1.04492 70.9828 -0.925805 71.7034 -0.337065 72.2921C0.251675 72.8809 0.972309 73 1.44336 73V69ZM2.95508 70.5146L3.05273 1.81339L-0.947264 1.8077L-1.04492 70.5089L2.95508 70.5146ZM3.05273 1.81055C3.05273 1.98863 3.00686 2.48954 2.5646 2.93179C2.12235 3.37405 1.62144 3.41992 1.44336 3.41992V-0.580078C1.00486 -0.580078 0.308641 -0.469099 -0.263823 0.103365C-0.836287 0.675828 -0.947266 1.37205 -0.947266 1.81055H3.05273ZM1.44336 3.41992H12.6738V-0.580078H1.44336V3.41992ZM12.6738 3.41992C12.4957 3.41992 11.9948 3.37405 11.5526 2.93179C11.1103 2.48954 11.0645 1.98863 11.0645 1.81055H15.0645C15.0645 1.37205 14.9535 0.675828 14.381 0.103365C13.8085 -0.469099 13.1123 -0.580078 12.6738 -0.580078V3.41992ZM11.0645 1.81339L11.1621 70.5146L15.1621 70.5089L15.0645 1.8077L11.0645 1.81339ZM11.1621 70.5117C11.1621 70.4608 11.1636 70.0525 11.5027 69.6285C11.9101 69.1194 12.4603 69 12.7715 69V73C13.3431 73 14.0886 72.7993 14.6262 72.1273C15.0956 71.5406 15.1621 70.8882 15.1621 70.5117H11.1621ZM22.0488 70.3164L24.0488 70.3164L24.0488 70.3135L22.0488 70.3164ZM21.9512 2.20117L19.9512 2.20117L19.9512 2.20404L21.9512 2.20117ZM31.7656 1.41992L33.6038 0.631808L33.0842 -0.580078H31.7656V1.41992ZM48.6602 40.8242L46.822 41.6123L50.66 40.7989L48.6602 40.8242ZM48.1719 2.20117H46.1719V2.21381L46.172 2.22645L48.1719 2.20117ZM59.5488 2.20117L57.5488 2.20117L57.5488 2.20404L59.5488 2.20117ZM59.6465 70.4141L61.6465 70.4141L61.6465 70.4112L59.6465 70.4141ZM50.3691 71L48.5597 71.8519L49.1002 73H50.3691V71ZM33.0352 34.1836L34.8446 33.3317L31.0356 34.2242L33.0352 34.1836ZM33.7676 70.2188H35.7676V70.1984L35.7672 70.1781L33.7676 70.2188ZM32.8398 69H22.8301V73H32.8398V69ZM22.8301 69C22.8392 69 22.9214 69.0003 23.0483 69.0373C23.1814 69.0761 23.3719 69.1583 23.5611 69.3239C23.9922 69.7011 24.0488 70.1614 24.0488 70.3164H20.0488C20.0488 70.9271 20.2357 71.7292 20.9271 72.3343C21.5676 72.8946 22.3221 73 22.8301 73V69ZM24.0488 70.3135L23.9512 2.1983L19.9512 2.20404L20.0488 70.3193L24.0488 70.3135ZM23.9512 2.20117C23.9512 2.24904 23.9378 2.6523 23.5607 3.02945C23.1835 3.4066 22.7803 3.41992 22.7324 3.41992V-0.580078C22.1637 -0.580078 21.3698 -0.436547 20.7323 0.201021C20.0947 0.838589 19.9512 1.63247 19.9512 2.20117H23.9512ZM22.7324 3.41992H31.7656V-0.580078H22.7324V3.41992ZM29.9275 2.20804L46.822 41.6123L50.4983 40.0361L33.6038 0.631808L29.9275 2.20804ZM50.66 40.7989L50.1717 2.17589L46.172 2.22645L46.6603 40.8495L50.66 40.7989ZM50.1719 2.20117C50.1719 2.31406 50.1293 2.74653 49.7203 3.11005C49.54 3.27032 49.3587 3.34952 49.2344 3.38635C49.1738 3.4043 49.1264 3.41243 49.0967 3.4162C49.0671 3.41996 49.0508 3.41992 49.0508 3.41992V-0.580078C48.5038 -0.580078 47.7199 -0.463624 47.0629 0.120416C46.3609 0.744359 46.1719 1.56745 46.1719 2.20117H50.1719ZM49.0508 3.41992H58.9629V-0.580078H49.0508V3.41992ZM58.9629 3.41992C58.8405 3.41992 58.6389 3.39946 58.407 3.29637C58.1634 3.18813 57.955 3.01873 57.8023 2.81523C57.5259 2.44665 57.5488 2.13307 57.5488 2.20117H61.5488C61.5488 1.74844 61.4741 1.04423 61.0023 0.415234C60.4494 -0.321969 59.6462 -0.580078 58.9629 -0.580078V3.41992ZM57.5488 2.20404L57.6465 70.4169L61.6465 70.4112L61.5488 2.19831L57.5488 2.20404ZM57.6465 70.4141C57.6465 70.3809 57.6458 69.9837 57.988 69.5731C58.3883 69.0928 58.9071 69 59.1582 69V73C59.7348 73 60.4978 72.8096 61.0609 72.1339C61.5657 71.528 61.6465 70.8379 61.6465 70.4141H57.6465ZM59.1582 69H50.3691V73H59.1582V69ZM52.1786 70.1481L34.8446 33.3317L31.2257 35.0355L48.5597 71.8519L52.1786 70.1481ZM31.0356 34.2242L31.768 70.2594L35.7672 70.1781L35.0347 34.143L31.0356 34.2242ZM31.7676 70.2188C31.7676 70.0721 31.8274 69.6285 32.2474 69.2749C32.6015 68.9766 32.9166 69 32.8398 69V73C33.3815 73 34.1605 72.8932 34.8239 72.3345C35.5531 71.7204 35.7676 70.8862 35.7676 70.2188H31.7676ZM68.4355 70.3164L70.4355 70.3164L70.4355 70.3135L68.4355 70.3164ZM68.3379 2.20117L66.3379 2.20117L66.3379 2.20404L68.3379 2.20117ZM78.1523 1.41992L79.9905 0.631808L79.4709 -0.580078H78.1523V1.41992ZM95.0469 40.8242L93.2087 41.6123L97.0467 40.7989L95.0469 40.8242ZM94.5586 2.20117H92.5586V2.21381L92.5588 2.22645L94.5586 2.20117ZM105.936 2.20117L103.936 2.20117L103.936 2.20404L105.936 2.20117ZM106.033 70.4141L108.033 70.4141L108.033 70.4112L106.033 70.4141ZM96.7559 71L94.9464 71.8519L95.4869 73H96.7559V71ZM79.4219 34.1836L81.2313 33.3317L77.4223 34.2242L79.4219 34.1836ZM80.1543 70.2188H82.1543V70.1984L82.1539 70.1781L80.1543 70.2188ZM79.2266 69H69.2168V73H79.2266V69ZM69.2168 69C69.226 69 69.3081 69.0003 69.435 69.0373C69.5681 69.0761 69.7586 69.1583 69.9479 69.3239C70.3789 69.7011 70.4355 70.1614 70.4355 70.3164H66.4355C66.4355 70.9271 66.6224 71.7292 67.3139 72.3343C67.9543 72.8946 68.7088 73 69.2168 73V69ZM70.4355 70.3135L70.3379 2.1983L66.3379 2.20404L66.4355 70.3193L70.4355 70.3135ZM70.3379 2.20117C70.3379 2.24904 70.3246 2.6523 69.9474 3.02945C69.5703 3.4066 69.167 3.41992 69.1191 3.41992V-0.580078C68.5504 -0.580078 67.7566 -0.436547 67.119 0.201021C66.4814 0.838589 66.3379 1.63247 66.3379 2.20117H70.3379ZM69.1191 3.41992H78.1523V-0.580078H69.1191V3.41992ZM76.3142 2.20804L93.2087 41.6123L96.885 40.0361L79.9905 0.631808L76.3142 2.20804ZM97.0467 40.7989L96.5584 2.17589L92.5588 2.22645L93.047 40.8495L97.0467 40.7989ZM96.5586 2.20117C96.5586 2.31406 96.516 2.74653 96.107 3.11005C95.9267 3.27032 95.7454 3.34952 95.6212 3.38635C95.5605 3.4043 95.5131 3.41243 95.4835 3.4162C95.4538 3.41996 95.4376 3.41992 95.4375 3.41992V-0.580078C94.8905 -0.580078 94.1066 -0.463624 93.4496 0.120416C92.7477 0.744359 92.5586 1.56745 92.5586 2.20117H96.5586ZM95.4375 3.41992H105.35V-0.580078H95.4375V3.41992ZM105.35 3.41992C105.227 3.41992 105.026 3.39946 104.794 3.29637C104.55 3.18813 104.342 3.01873 104.189 2.81523C103.913 2.44665 103.936 2.13307 103.936 2.20117H107.936C107.936 1.74844 107.861 1.04423 107.389 0.415234C106.836 -0.321969 106.033 -0.580078 105.35 -0.580078V3.41992ZM103.936 2.20404L104.033 70.4169L108.033 70.4112L107.936 2.19831L103.936 2.20404ZM104.033 70.4141C104.033 70.3809 104.033 69.9837 104.375 69.5731C104.775 69.0928 105.294 69 105.545 69V73C106.122 73 106.884 72.8096 107.448 72.1339C107.952 71.528 108.033 70.8379 108.033 70.4141H104.033ZM105.545 69H96.7559V73H105.545V69ZM98.5653 70.1481L81.2313 33.3317L77.6124 35.0355L94.9464 71.8519L98.5653 70.1481ZM77.4223 34.2242L78.1547 70.2594L82.1539 70.1781L81.4215 34.143L77.4223 34.2242ZM78.1543 70.2188C78.1543 70.0721 78.2141 69.6285 78.6341 69.2749C78.9882 68.9766 79.3034 69 79.2266 69V73C79.7683 73 80.5472 72.8932 81.2106 72.3345C81.9399 71.7204 82.1543 70.8862 82.1543 70.2188H78.1543ZM123.416 69.2422L122.368 70.9455L122.376 70.9506L123.416 69.2422ZM116.238 61.9668L114.512 62.9768L114.518 62.9877L114.525 62.9985L116.238 61.9668ZM113.553 51.9082L111.553 51.902V51.9082H113.553ZM113.65 20.2188L115.65 20.2249V20.2188H113.65ZM116.336 10.209L118.048 11.2435L118.054 11.2325L118.061 11.2214L116.336 10.209ZM123.465 3.03125L124.491 4.74788L124.498 4.74379L124.505 4.73965L123.465 3.03125ZM143.045 2.98242L141.994 4.68379L142.002 4.68899L143.045 2.98242ZM150.076 10.209L148.347 11.2133L148.353 11.2243L148.36 11.2352L150.076 10.209ZM152.762 20.2188L150.762 20.2188L150.762 20.2249L152.762 20.2188ZM152.859 51.9082L154.859 51.9082L154.859 51.902L152.859 51.9082ZM150.223 61.918L151.949 62.928L151.952 62.9222L150.223 61.918ZM138.504 57.4746L139.976 58.8287L139.982 58.8215L139.989 58.8141L138.504 57.4746ZM140.75 51.9082L142.75 51.9082L142.75 51.902L140.75 51.9082ZM140.652 20.2188L138.652 20.2188L138.652 20.2249L140.652 20.2188ZM127.957 57.5723L126.484 58.9251L126.491 58.9326L126.498 58.9401L127.957 57.5723ZM133.23 69.9766C130.044 69.9766 127.133 69.1636 124.456 67.5338L122.376 70.9506C125.688 72.9666 129.32 73.9766 133.23 73.9766V69.9766ZM124.464 67.5389C121.779 65.8862 119.612 63.6932 117.952 60.9351L114.525 62.9985C116.51 66.2951 119.129 68.9523 122.368 70.9455L124.464 67.5389ZM117.965 60.9568C116.359 58.2123 115.553 55.2096 115.553 51.9082H111.553C111.553 55.8985 112.537 59.6015 114.512 62.9768L117.965 60.9568ZM115.553 51.9144L115.65 20.2249L111.65 20.2126L111.553 51.902L115.553 51.9144ZM115.65 20.2188C115.65 16.8452 116.46 13.8711 118.048 11.2435L114.624 9.17447C112.632 12.4714 111.65 16.1705 111.65 20.2188H115.65ZM118.061 11.2214C119.648 8.51772 121.783 6.36675 124.491 4.74788L122.439 1.31462C119.157 3.27648 116.54 5.91066 114.611 9.19658L118.061 11.2214ZM124.505 4.73965C127.185 3.10801 130.081 2.29688 133.23 2.29688V-1.70312C129.349 -1.70312 125.734 -0.691342 122.425 1.32285L124.505 4.73965ZM133.23 2.29688C136.532 2.29688 139.435 3.1025 141.994 4.68377L144.096 1.28108C140.861 -0.718385 137.22 -1.70312 133.23 -1.70312V2.29688ZM142.002 4.68899C144.642 6.30246 146.752 8.46758 148.347 11.2133L151.806 9.20471C149.884 5.8957 147.307 3.24311 144.088 1.27586L142.002 4.68899ZM148.36 11.2352C149.954 13.9027 150.762 16.8813 150.762 20.2188H154.762C154.762 16.1994 153.779 12.5048 151.793 9.18274L148.36 11.2352ZM150.762 20.2249L150.859 51.9144L154.859 51.902L154.762 20.2126L150.762 20.2249ZM150.859 51.9082C150.859 55.2165 150.066 58.2043 148.493 60.9137L151.952 62.9222C153.895 59.5769 154.859 55.8915 154.859 51.9082H150.859ZM148.496 60.9079C146.868 63.6903 144.723 65.8913 142.046 67.5389L144.142 70.9455C147.389 68.9472 149.996 66.2654 151.949 62.928L148.496 60.9079ZM142.046 67.5389C139.411 69.1601 136.489 69.9766 133.23 69.9766V73.9766C137.199 73.9766 140.852 72.9702 144.142 70.9455L142.046 67.5389ZM133.23 61.916C135.865 61.916 138.14 60.824 139.976 58.8287L137.032 56.1205C135.873 57.3804 134.632 57.916 133.23 57.916V61.916ZM139.989 58.8141C141.785 56.8225 142.75 54.5002 142.75 51.9082H138.75C138.75 53.4178 138.217 54.8064 137.019 56.1351L139.989 58.8141ZM142.75 51.902L142.652 20.2126L138.652 20.2249L138.75 51.9144L142.75 51.902ZM142.652 20.2188C142.652 17.5423 141.789 15.1784 140.028 13.2535L137.077 15.9535C138.115 17.0885 138.652 18.4681 138.652 20.2188H142.652ZM140.028 13.2535C138.235 11.2928 135.917 10.3086 133.23 10.3086V14.3086C134.841 14.3086 136.071 14.8543 137.077 15.9535L140.028 13.2535ZM133.23 10.3086C130.629 10.3086 128.359 11.2834 126.527 13.1561L129.387 15.9533C130.484 14.8312 131.731 14.3086 133.23 14.3086V10.3086ZM126.527 13.1561C124.663 15.0618 123.76 17.4677 123.76 20.2188H127.76C127.76 18.4125 128.321 17.0424 129.387 15.9533L126.527 13.1561ZM123.76 20.2188V51.9082H127.76V20.2188H123.76ZM123.76 51.9082C123.76 54.5863 124.678 56.9581 126.484 58.9251L129.43 56.2195C128.307 54.9963 127.76 53.5921 127.76 51.9082H123.76ZM126.498 58.9401C128.322 60.8858 130.6 61.916 133.23 61.916V57.916C131.76 57.916 130.522 57.3837 129.416 56.2044L126.498 58.9401ZM171.17 70.5117L173.16 70.3127L173.15 70.2143L173.131 70.1173L171.17 70.5117ZM157.352 1.81055L159.312 1.41617L159.303 1.37059L159.292 1.32548L157.352 1.81055ZM169.559 1.81055L171.527 1.45795L171.515 1.39123L171.499 1.32548L169.559 1.81055ZM177.762 47.6113L175.793 47.9639L179.732 47.9558L177.762 47.6113ZM185.77 1.81055L183.829 1.32548L183.812 1.39525L183.799 1.46609L185.77 1.81055ZM197.83 1.81055L195.957 1.1083L195.9 1.26192L195.868 1.42287L197.83 1.81055ZM184.256 70.5117L182.294 70.124L182.275 70.2177L182.266 70.3127L184.256 70.5117ZM183.768 69H171.658V73H183.768V69ZM171.658 69C171.89 69 172.342 69.0748 172.731 69.4637C173.089 69.8221 173.149 70.2059 173.16 70.3127L169.18 70.7107C169.223 71.1431 169.381 71.771 169.902 72.2921C170.454 72.8439 171.133 73 171.658 73V69ZM173.131 70.1173L159.312 1.41617L155.391 2.20492L169.209 70.9061L173.131 70.1173ZM159.292 1.32548C159.345 1.5361 159.452 2.294 158.815 2.93179C158.547 3.19891 158.262 3.31642 158.084 3.36738C157.91 3.41718 157.783 3.41992 157.742 3.41992V-0.580078C157.424 -0.580078 156.627 -0.537583 155.986 0.103365C155.218 0.871363 155.294 1.82458 155.411 2.29562L159.292 1.32548ZM157.742 3.41992H169.07V-0.580078H157.742V3.41992ZM169.07 3.41992C168.862 3.41992 168.493 3.36272 168.138 3.07932C167.79 2.80094 167.661 2.46712 167.618 2.29562L171.499 1.32548C171.391 0.893555 171.148 0.364424 170.637 -0.0441595C170.12 -0.457768 169.539 -0.580078 169.07 -0.580078V3.41992ZM167.59 2.16315L175.793 47.9639L179.73 47.2587L171.527 1.45795L167.59 2.16315ZM179.732 47.9558L187.74 2.155L183.799 1.46609L175.792 47.2669L179.732 47.9558ZM187.71 2.29562C187.667 2.46712 187.538 2.80094 187.19 3.07932C186.836 3.36272 186.466 3.41992 186.258 3.41992V-0.580078C185.789 -0.580078 185.208 -0.457768 184.691 -0.0441595C184.18 0.364424 183.937 0.893555 183.829 1.32548L187.71 2.29562ZM186.258 3.41992H197.439V-0.580078H186.258V3.41992ZM197.439 3.41992C197.421 3.41992 197.311 3.41967 197.15 3.37681C196.992 3.33472 196.683 3.22381 196.391 2.93179C196.067 2.60729 195.9 2.19551 195.868 1.80574C195.839 1.46304 195.919 1.21205 195.957 1.1083L199.703 2.51279C199.868 2.07274 200.101 0.984692 199.22 0.103365C198.554 -0.562708 197.708 -0.580078 197.439 -0.580078V3.41992ZM195.868 1.42287L182.294 70.124L186.218 70.8994L199.792 2.19822L195.868 1.42287ZM182.266 70.3127C182.276 70.2059 182.337 69.8221 182.695 69.4637C183.084 69.0748 183.536 69 183.768 69V73C184.293 73 184.972 72.8439 185.524 72.2921C186.045 71.771 186.203 71.1431 186.246 70.7107L182.266 70.3127ZM211.795 69.2422L210.747 70.9455L210.755 70.9506L211.795 69.2422ZM204.617 62.0156L202.901 63.0419L202.905 63.0487L202.909 63.0555L204.617 62.0156ZM207.84 31.5957L209.279 32.9844L210.586 31.6296L209.313 30.2429L207.84 31.5957ZM204.373 25.9805L202.499 26.6796L202.506 26.6966L202.512 26.7135L204.373 25.9805ZM205.594 9.52539L203.86 8.52882L203.855 8.53729L203.85 8.5458L205.594 9.52539ZM237.43 9.62305L235.704 10.6345L235.709 10.6432L237.43 9.62305ZM238.65 25.9316L236.79 25.1986L236.787 25.2061L236.784 25.2137L238.65 25.9316ZM235.232 31.5957L233.733 30.2725L232.49 31.6813L233.818 33.0099L235.232 31.5957ZM238.406 62.0645L240.128 63.0825L240.132 63.0756L240.136 63.0687L238.406 62.0645ZM225.955 23.7344L224.505 22.3569L224.496 22.3665L224.487 22.3763L225.955 23.7344ZM225.955 14.2129L224.47 15.5528L224.479 15.5627L224.488 15.5724L225.955 14.2129ZM226.785 57.7188L225.325 56.3519L226.785 57.7188ZM216.238 40.2871L217.683 41.6703L216.238 40.2871ZM216.238 57.6699L214.765 59.0227L214.772 59.0303L214.779 59.0378L216.238 57.6699ZM221.512 69.9766C218.398 69.9766 215.518 69.1673 212.835 67.5338L210.755 70.9506C214.061 72.9629 217.659 73.9766 221.512 73.9766V69.9766ZM212.843 67.5389C210.153 65.8831 207.985 63.7025 206.326 60.9757L202.909 63.0555C204.895 66.3183 207.513 68.9554 210.747 70.9455L212.843 67.5389ZM206.334 60.9894C204.736 58.3161 203.932 55.3689 203.932 52.1035H199.932C199.932 56.0647 200.918 59.7255 202.901 63.0419L206.334 60.9894ZM203.932 52.1035V45.9023H199.932V52.1035H203.932ZM203.932 45.9023C203.932 43.3662 204.417 41.0215 205.374 38.8465L201.712 37.2355C200.521 39.9433 199.932 42.8396 199.932 45.9023H203.932ZM205.374 38.8465C206.356 36.6135 207.658 34.6643 209.279 32.9844L206.401 30.207C204.441 32.2381 202.878 34.5857 201.712 37.2355L205.374 38.8465ZM209.313 30.2429C208.025 28.8406 206.996 27.1825 206.234 25.2474L202.512 26.7135C203.443 29.0753 204.725 31.1607 206.367 32.9485L209.313 30.2429ZM206.247 25.2813C205.522 23.3377 205.152 21.2484 205.152 18.998H201.152C201.152 21.6956 201.597 24.2613 202.499 26.6796L206.247 25.2813ZM205.152 18.998C205.152 15.913 205.883 13.0942 207.337 10.505L203.85 8.5458C202.049 11.7509 201.152 15.2472 201.152 18.998H205.152ZM207.328 10.522C208.784 7.98749 210.752 5.99114 213.255 4.50737L211.214 1.06685C208.117 2.90339 205.658 5.39923 203.86 8.52882L207.328 10.522ZM213.255 4.50737C215.733 3.03786 218.47 2.29688 221.512 2.29688V-1.70312C217.782 -1.70312 214.335 -0.783957 211.214 1.06685L213.255 4.50737ZM221.512 2.29688C224.582 2.29688 227.31 3.05203 229.745 4.542L231.833 1.12987C228.734 -0.76557 225.277 -1.70312 221.512 -1.70312V2.29688ZM229.745 4.542C232.228 6.06068 234.209 8.08302 235.704 10.6345L239.155 8.61161C237.33 5.49901 234.884 2.99661 231.833 1.12987L229.745 4.542ZM235.709 10.6432C237.175 13.1151 237.92 15.8841 237.92 18.998H241.92C241.92 15.211 241.004 11.7299 239.15 8.60289L235.709 10.6432ZM237.92 18.998C237.92 21.2392 237.538 23.2998 236.79 25.1986L240.511 26.6647C241.456 24.2666 241.92 21.7049 241.92 18.998H237.92ZM236.784 25.2137C236.053 27.113 235.036 28.7949 233.733 30.2725L236.732 32.9189C238.358 31.0762 239.62 28.9821 240.517 26.6496L236.784 25.2137ZM233.818 33.0099C235.415 34.6065 236.69 36.5183 237.637 38.7683L241.324 37.2161C240.188 34.5182 238.631 32.1656 236.647 30.1815L233.818 33.0099ZM237.637 38.7683C238.571 40.9861 239.043 43.3578 239.043 45.9023H243.043C243.043 42.848 242.473 39.9462 241.324 37.2161L237.637 38.7683ZM239.043 45.9023V52.1035H243.043V45.9023H239.043ZM239.043 52.1035C239.043 55.3759 238.251 58.348 236.677 61.0602L240.136 63.0687C242.077 59.7262 243.043 56.0577 243.043 52.1035H239.043ZM236.685 61.0464C235.057 63.7993 232.927 65.9689 230.283 67.5845L232.369 70.9976C235.585 69.0324 238.175 66.3843 240.128 63.0825L236.685 61.0464ZM230.283 67.5845C227.684 69.1727 224.777 69.9766 221.512 69.9766V73.9766C225.473 73.9766 229.109 72.9901 232.369 70.9976L230.283 67.5845ZM221.512 27.6875C223.833 27.6875 225.844 26.7996 227.423 25.0925L224.487 22.3763C223.657 23.2733 222.706 23.6875 221.512 23.6875V27.6875ZM227.405 25.1119C229.008 23.4247 229.811 21.3474 229.811 18.998H225.811C225.811 20.3597 225.376 21.4399 224.505 22.3569L227.405 25.1119ZM229.811 18.998C229.811 16.6494 229.009 14.5658 227.422 12.8534L224.488 15.5724C225.375 16.5293 225.811 17.6358 225.811 18.998H229.811ZM227.44 12.873C225.866 11.129 223.85 10.2109 221.512 10.2109V14.2109C222.689 14.2109 223.635 14.6275 224.47 15.5528L227.44 12.873ZM221.512 10.2109C219.199 10.2109 217.189 11.1329 215.57 12.8345L218.469 15.5913C219.389 14.6236 220.374 14.2109 221.512 14.2109V10.2109ZM215.57 12.8345C213.944 14.5439 213.115 16.6336 213.115 18.998H217.115C217.115 17.6515 217.556 16.5511 218.469 15.5913L215.57 12.8345ZM213.115 18.998C213.115 21.3177 213.959 23.3694 215.57 25.064L218.469 22.3071C217.541 21.3324 217.115 20.2591 217.115 18.998H213.115ZM215.57 25.064C217.189 26.7655 219.199 27.6875 221.512 27.6875V23.6875C220.374 23.6875 219.389 23.2748 218.469 22.3071L215.57 25.064ZM221.512 62.0137C224.152 62.0137 226.437 61.0167 228.245 59.0856L225.325 56.3519C224.268 57.4807 223.038 58.0137 221.512 58.0137V62.0137ZM228.245 59.0856C230.045 57.1628 230.934 54.7933 230.934 52.1035H226.934C226.934 53.8408 226.39 55.2148 225.325 56.3519L228.245 59.0856ZM230.934 52.1035V45.9023H226.934V52.1035H230.934ZM230.934 45.9023C230.934 43.2611 230.035 40.9214 228.259 38.9845L225.311 41.6874C226.4 42.8755 226.934 44.2468 226.934 45.9023H230.934ZM228.259 38.9845C226.456 37.0169 224.167 35.9922 221.512 35.9922V39.9922C223.023 39.9922 224.25 40.5299 225.311 41.6874L228.259 38.9845ZM221.512 35.9922C218.896 35.9922 216.622 36.9946 214.794 38.904L217.683 41.6703C218.784 40.5198 220.026 39.9922 221.512 39.9922V35.9922ZM214.794 38.904C212.955 40.8243 212.041 43.1991 212.041 45.9023H216.041C216.041 44.1785 216.592 42.8098 217.683 41.6703L214.794 38.904ZM212.041 45.9023V52.1035H216.041V45.9023H212.041ZM212.041 52.1035C212.041 54.7333 212.97 57.0683 214.765 59.0227L217.711 56.3171C216.577 55.0815 216.041 53.7055 216.041 52.1035H212.041ZM214.779 59.0378C216.603 60.9835 218.881 62.0137 221.512 62.0137V58.0137C220.041 58.0137 218.803 57.4814 217.697 56.302L214.779 59.0378ZM274.588 70.5117L272.588 70.5089V70.5117H274.588ZM274.686 1.9082L276.686 1.91105V1.9082H274.686ZM286.795 1.9082L288.795 1.91164V1.9082H286.795ZM286.697 58.6953L284.697 58.6919L284.694 60.6953H286.697V58.6953ZM307.303 69H274.979V73H307.303V69ZM274.979 69C275.29 69 275.84 69.1194 276.247 69.6285C276.586 70.0525 276.588 70.4608 276.588 70.5117H272.588C272.588 70.8882 272.654 71.5406 273.124 72.1273C273.661 72.7993 274.407 73 274.979 73V69ZM276.588 70.5146L276.686 1.91105L272.686 1.90536L272.588 70.5089L276.588 70.5146ZM276.686 1.9082C276.686 2.05373 276.648 2.53023 276.222 2.95621C275.796 3.38219 275.319 3.41992 275.174 3.41992V-0.580078C274.703 -0.580078 273.982 -0.460961 273.393 0.127779C272.805 0.716518 272.686 1.43715 272.686 1.9082H276.686ZM275.174 3.41992H286.307V-0.580078H275.174V3.41992ZM286.307 3.41992C286.161 3.41992 285.685 3.38219 285.259 2.95621C284.833 2.53023 284.795 2.05373 284.795 1.9082H288.795C288.795 1.43715 288.676 0.716518 288.087 0.127779C287.498 -0.460961 286.778 -0.580078 286.307 -0.580078V3.41992ZM284.795 1.90476L284.697 58.6919L288.697 58.6988L288.795 1.91164L284.795 1.90476ZM286.697 60.6953H307.303V56.6953H286.697V60.6953ZM307.303 60.6953C307.157 60.6953 306.681 60.6576 306.255 60.2316C305.829 59.8056 305.791 59.3291 305.791 59.1836H309.791C309.791 58.7125 309.672 57.9919 309.083 57.4032C308.494 56.8144 307.774 56.6953 307.303 56.6953V60.6953ZM305.791 59.1836V70.5117H309.791V59.1836H305.791ZM305.791 70.5117C305.791 70.3662 305.829 69.8897 306.255 69.4637C306.681 69.0377 307.157 69 307.303 69V73C307.774 73 308.494 72.8809 309.083 72.2921C309.672 71.7034 309.791 70.9828 309.791 70.5117H305.791ZM310.965 70.5117L308.997 70.1564L308.965 70.3326V70.5117H310.965ZM323.367 1.81055L321.427 1.32548L321.411 1.38989L321.399 1.45524L323.367 1.81055ZM338.846 1.81055L340.816 1.46881L340.804 1.39659L340.786 1.32548L338.846 1.81055ZM350.76 70.5117L352.75 70.3127L352.743 70.241L352.73 70.17L350.76 70.5117ZM338.748 70.5117L340.738 70.3127L340.734 70.267L340.727 70.2215L338.748 70.5117ZM337.674 63.1875L339.653 62.8973L339.402 61.1875H337.674V63.1875ZM324.051 63.1875V61.1875H322.323L322.072 62.8973L324.051 63.1875ZM322.977 70.5117L320.998 70.2215L320.991 70.267L320.986 70.3127L322.977 70.5117ZM330.545 24.418L332.52 24.7339L332.526 24.6937L332.531 24.6532L330.545 24.418ZM326.053 52.4941L324.078 52.1782L323.707 54.4941H326.053V52.4941ZM335.672 52.4941V54.4941H337.985L337.651 52.205L335.672 52.4941ZM331.57 24.418L333.549 24.1289L333.548 24.1174L333.546 24.106L331.57 24.418ZM330.984 20.707L332.96 20.3951L328.998 20.4718L330.984 20.707ZM312.933 70.867L325.335 2.16586L321.399 1.45524L308.997 70.1564L312.933 70.867ZM325.307 2.29562C325.265 2.46712 325.135 2.80094 324.787 3.07932C324.433 3.36272 324.063 3.41992 323.855 3.41992V-0.580078C323.387 -0.580078 322.806 -0.457768 322.289 -0.0441595C321.778 0.364424 321.535 0.893555 321.427 1.32548L325.307 2.29562ZM323.855 3.41992H338.357V-0.580078H323.855V3.41992ZM338.357 3.41992C338.149 3.41992 337.78 3.36272 337.425 3.07932C337.077 2.80094 336.948 2.46712 336.905 2.29562L340.786 1.32548C340.678 0.893555 340.435 0.364424 339.924 -0.0441595C339.407 -0.457768 338.826 -0.580078 338.357 -0.580078V3.41992ZM336.875 2.15228L348.789 70.8535L352.73 70.17L340.816 1.46881L336.875 2.15228ZM348.77 70.7107C348.763 70.6397 348.719 70.1355 349.125 69.6285C349.576 69.0646 350.167 69 350.369 69V73C350.864 73 351.667 72.854 352.248 72.1273C352.784 71.4576 352.789 70.7092 352.75 70.3127L348.77 70.7107ZM350.369 69H339.285V73H350.369V69ZM339.285 69C339.445 69 339.862 69.0435 340.252 69.398C340.641 69.7513 340.723 70.1588 340.738 70.3127L336.758 70.7107C336.806 71.1902 336.994 71.8418 337.561 72.3578C338.13 72.8751 338.799 73 339.285 73V69ZM340.727 70.2215L339.653 62.8973L335.695 63.4777L336.769 70.8019L340.727 70.2215ZM337.674 61.1875H324.051V65.1875H337.674V61.1875ZM322.072 62.8973L320.998 70.2215L324.955 70.8019L326.03 63.4777L322.072 62.8973ZM320.986 70.3127C320.997 70.2059 321.057 69.8221 321.416 69.4637C321.805 69.0748 322.256 69 322.488 69V73C323.013 73 323.693 72.8439 324.244 72.2921C324.765 71.771 324.923 71.1431 324.967 70.7107L320.986 70.3127ZM322.488 69H311.355V73H322.488V69ZM311.355 69C311.667 69 312.217 69.1194 312.624 69.6285C312.963 70.0525 312.965 70.4608 312.965 70.5117H308.965C308.965 70.8882 309.031 71.5406 309.501 72.1273C310.038 72.7993 310.784 73 311.355 73V69ZM328.57 24.102L324.078 52.1782L328.028 52.8101L332.52 24.7339L328.57 24.102ZM326.053 54.4941H335.672V50.4941H326.053V54.4941ZM337.651 52.205L333.549 24.1289L329.591 24.7071L333.693 52.7832L337.651 52.205ZM333.546 24.106L332.96 20.3951L329.009 21.019L329.595 24.7299L333.546 24.106ZM328.998 20.4718L328.559 24.1828L332.531 24.6532L332.97 20.9422L328.998 20.4718ZM357.01 70.5117L355.01 70.506V70.5117H357.01ZM357.205 1.81055L359.205 1.81623V1.81055H357.205ZM387.039 4.1543L388.079 2.4459L388.071 2.44096L388.063 2.43609L387.039 4.1543ZM394.119 11.4297L392.381 12.42L392.386 12.428L394.119 11.4297ZM390.115 35.209L388.816 33.6885L387.172 35.0937L388.701 36.6232L390.115 35.209ZM393.436 60.502L395.157 61.5206L395.161 61.5141L395.164 61.5075L393.436 60.502ZM385.867 68.168L386.894 69.8845L386.9 69.8806L386.907 69.8767L385.867 68.168ZM369.217 13.2852V11.2852H367.217V13.2852H369.217ZM369.217 29.0078H367.217V31.0078H369.217V29.0078ZM382.449 26.5664L383.951 27.8877L383.957 27.8803L383.964 27.8729L382.449 26.5664ZM382.303 15.6777L380.859 17.0622L380.867 17.0696L380.874 17.077L382.303 15.6777ZM369.217 41.1172V39.1172H367.228L367.217 41.1061L369.217 41.1172ZM369.119 58.793L367.119 58.7819L367.108 60.793H369.119V58.793ZM375.32 69H357.4V73H375.32V69ZM357.4 69C357.712 69 358.262 69.1194 358.669 69.6285C359.008 70.0525 359.01 70.4608 359.01 70.5117H355.01C355.01 70.8882 355.076 71.5406 355.546 72.1273C356.083 72.7993 356.829 73 357.4 73V69ZM359.01 70.5174L359.205 1.81623L355.205 1.80486L355.01 70.506L359.01 70.5174ZM359.205 1.81055C359.205 1.98863 359.159 2.48954 358.717 2.93179C358.275 3.37405 357.774 3.41992 357.596 3.41992V-0.580078C357.157 -0.580078 356.461 -0.469099 355.889 0.103365C355.316 0.675828 355.205 1.37205 355.205 1.81055H359.205ZM357.596 3.41992H376.834V-0.580078H357.596V3.41992ZM376.834 3.41992C380.236 3.41992 383.281 4.24359 386.015 5.8725L388.063 2.43609C384.677 0.419168 380.919 -0.580078 376.834 -0.580078V3.41992ZM385.999 5.86269C388.706 7.51041 390.825 9.68918 392.382 12.42L395.857 10.4394C393.963 7.11551 391.362 4.44402 388.079 2.4459L385.999 5.86269ZM392.386 12.428C393.933 15.1138 394.707 18.0238 394.707 21.1953H398.707C398.707 17.3356 397.755 13.7352 395.852 10.4313L392.386 12.428ZM394.707 21.1953C394.707 23.7436 394.131 26.0922 392.984 28.2716L396.524 30.1346C397.981 27.3662 398.707 24.3762 398.707 21.1953H394.707ZM392.984 28.2716C391.778 30.5623 390.381 32.351 388.816 33.6885L391.415 36.7294C393.43 35.0071 395.125 32.7918 396.524 30.1346L392.984 28.2716ZM388.701 36.6232C390.437 38.3589 391.79 40.3722 392.765 42.6777L396.449 41.1192C395.276 38.3465 393.635 35.9003 391.529 33.7948L388.701 36.6232ZM392.765 42.6777C393.734 44.9663 394.219 47.3703 394.219 49.9062H398.219C398.219 46.8433 397.63 43.9087 396.449 41.1192L392.765 42.6777ZM394.219 49.9062C394.219 53.445 393.376 56.6271 391.707 59.4964L395.164 61.5075C397.206 57.9966 398.219 54.1149 398.219 49.9062H394.219ZM391.714 59.4833C389.993 62.3918 387.704 64.7098 384.828 66.4592L386.907 69.8767C390.345 67.785 393.102 64.9923 395.157 61.5206L391.714 59.4833ZM384.841 66.4514C382.01 68.144 378.853 69 375.32 69V73C379.536 73 383.409 71.968 386.894 69.8845L384.841 66.4514ZM376.834 11.2852H369.217V15.2852H376.834V11.2852ZM367.217 13.2852V29.0078H371.217V13.2852H367.217ZM369.217 31.0078H376.834V27.0078H369.217V31.0078ZM376.834 31.0078C379.677 31.0078 382.111 29.978 383.951 27.8877L380.948 25.2452C379.923 26.4101 378.613 27.0078 376.834 27.0078V31.0078ZM383.964 27.8729C385.662 25.9043 386.598 23.6631 386.598 21.1953H382.598C382.598 22.5686 382.101 23.9082 380.935 25.2599L383.964 27.8729ZM386.598 21.1953C386.598 18.5371 385.614 16.2008 383.732 14.2785L380.874 17.077C382.051 18.2796 382.598 19.6218 382.598 21.1953H386.598ZM383.746 14.2933C381.858 12.3247 379.521 11.2852 376.834 11.2852V15.2852C378.378 15.2852 379.688 15.8407 380.859 17.0622L383.746 14.2933ZM375.32 39.1172H369.217V43.1172H375.32V39.1172ZM367.217 41.1061L367.119 58.7819L371.119 58.804L371.217 41.1282L367.217 41.1061ZM369.119 60.793H375.32V56.793H369.119V60.793ZM375.32 60.793C378.279 60.793 380.857 59.6885 382.949 57.5572L380.094 54.7553C378.735 56.1396 377.179 56.793 375.32 56.793V60.793ZM382.949 57.5572C385.032 55.4348 386.109 52.8521 386.109 49.9062H382.109C382.109 51.7781 381.462 53.362 380.094 54.7553L382.949 57.5572ZM386.109 49.9062C386.109 46.9593 385.031 44.3858 382.936 42.2909L380.107 45.1193C381.463 46.4749 382.109 48.0355 382.109 49.9062H386.109ZM382.936 42.2909C380.841 40.196 378.267 39.1172 375.32 39.1172V43.1172C377.191 43.1172 378.752 43.7637 380.107 45.1193L382.936 42.2909ZM410.574 69.2422L409.526 70.9455L409.534 70.9506L410.574 69.2422ZM403.445 61.9668L401.711 62.963L401.717 62.974L401.724 62.9849L403.445 61.9668ZM415.115 57.5723L413.642 58.9251L413.649 58.9326L413.656 58.9401L415.115 57.5723ZM425.711 57.5234L427.184 58.8762L427.191 58.8688L427.198 58.8614L425.711 57.5234ZM423.123 45.5117L422.063 47.2077L422.097 47.2286L422.131 47.2482L423.123 45.5117ZM421.072 44.3398L420.043 46.0548L420.083 46.0787L420.124 46.1008L421.072 44.3398ZM414.822 40.873L413.824 42.6063L413.844 42.6178L413.865 42.6288L414.822 40.873ZM411.697 39.1152L410.682 40.8383L410.709 40.854L410.736 40.8689L411.697 39.1152ZM403.543 31.0586L401.783 32.0089L401.789 32.0194L401.795 32.0299L403.543 31.0586ZM403.641 10.0625L401.937 9.01429L401.932 9.02261L403.641 10.0625ZM410.77 3.03125L411.784 4.75464L411.79 4.75122L410.77 3.03125ZM430.154 3.03125L431.189 1.31959L431.182 1.31541L431.175 1.31128L430.154 3.03125ZM437.234 10.1602L435.514 11.1808L435.519 11.1878L435.523 11.1947L437.234 10.1602ZM427.908 28.3242H429.908V28.3123L429.908 28.3004L427.908 28.3242ZM427.811 20.1211H425.811V20.133L425.811 20.1449L427.811 20.1211ZM414.285 25.5898L412.587 26.6464L412.595 26.6599L412.604 26.6732L414.285 25.5898ZM419.412 29.7891L418.463 31.5493L418.49 31.564L418.518 31.5779L419.412 29.7891ZM424.344 32.5234L423.351 34.2599L423.381 34.2766L423.41 34.2922L424.344 32.5234ZM427.518 34.2324L426.551 35.9836L426.575 35.9965L426.599 36.0089L427.518 34.2324ZM429.227 35.1113L430.202 33.3654L430.162 33.343L430.121 33.3225L429.227 35.1113ZM437.088 41.9473L435.458 43.106L435.462 43.1125L435.467 43.119L437.088 41.9473ZM437.381 62.1621L439.102 63.1802L439.106 63.1733L439.11 63.1664L437.381 62.1621ZM420.389 69.9766C417.203 69.9766 414.292 69.1636 411.614 67.5338L409.534 70.9506C412.846 72.9666 416.478 73.9766 420.389 73.9766V69.9766ZM411.622 67.5389C408.94 65.8882 406.794 63.6996 405.167 60.9487L401.724 62.9849C403.678 66.2887 406.284 68.9503 409.526 70.9455L411.622 67.5389ZM405.18 60.9705C403.602 58.2241 402.809 55.2165 402.809 51.9082H398.809C398.809 55.8915 399.773 59.5897 401.711 62.963L405.18 60.9705ZM402.809 51.9082V47.3184H398.809V51.9082H402.809ZM402.809 47.3184C402.809 47.403 402.793 47.8397 402.411 48.2609C401.995 48.7182 401.494 48.7812 401.297 48.7812V44.7812C400.774 44.7812 400.029 44.9338 399.451 45.5702C398.905 46.1704 398.809 46.8757 398.809 47.3184H402.809ZM401.297 48.7812H412.527V44.7812H401.297V48.7812ZM412.527 48.7812C412.365 48.7812 412.127 48.7531 411.865 48.6329C411.592 48.5078 411.366 48.316 411.203 48.0919C410.908 47.6865 410.918 47.3223 410.918 47.3184H414.918C414.918 46.9564 414.863 46.3236 414.438 45.7392C413.927 45.0364 413.169 44.7812 412.527 44.7812V48.7812ZM410.918 47.3184V51.9082H414.918V47.3184H410.918ZM410.918 51.9082C410.918 54.5863 411.836 56.9581 413.642 58.9251L416.588 56.2195C415.465 54.9963 414.918 53.5921 414.918 51.9082H410.918ZM413.656 58.9401C415.48 60.8858 417.758 61.916 420.389 61.916V57.916C418.918 57.916 417.68 57.3837 416.574 56.2044L413.656 58.9401ZM420.389 61.916C423.057 61.916 425.357 60.8653 427.184 58.8762L424.238 56.1706C423.135 57.3717 421.887 57.916 420.389 57.916V61.916ZM427.198 58.8614C428.98 56.8806 429.908 54.5368 429.908 51.9082H425.908C425.908 53.5114 425.371 54.9111 424.224 56.1855L427.198 58.8614ZM429.908 51.9082C429.908 48.4268 427.586 45.7586 424.115 43.7752L422.131 47.2482C425.04 48.9106 425.908 50.5068 425.908 51.9082H429.908ZM424.183 43.8157C423.611 43.4584 422.886 43.0451 422.02 42.5789L420.124 46.1008C420.951 46.5461 421.593 46.914 422.063 47.2077L424.183 43.8157ZM422.101 42.6249C421.256 42.1176 420.253 41.5496 419.097 40.922L417.188 44.4374C418.311 45.0468 419.261 45.5855 420.043 46.0548L422.101 42.6249ZM419.097 40.922C417.959 40.3041 416.853 39.7025 415.78 39.1173L413.865 42.6288C414.94 43.2155 416.048 43.8183 417.188 44.4374L419.097 40.922ZM415.82 39.1398C414.735 38.5149 413.681 37.9221 412.659 37.3616L410.736 40.8689C411.732 41.4151 412.761 41.9942 413.824 42.6063L415.82 39.1398ZM412.713 37.3922C409.328 35.3974 406.884 32.9549 405.291 30.0873L401.795 32.0299C403.782 35.6076 406.775 38.5362 410.682 40.8383L412.713 37.3922ZM405.303 30.1083C403.717 27.1711 402.906 23.8567 402.906 20.1211H398.906C398.906 24.4584 399.854 28.4357 401.783 32.0089L405.303 30.1083ZM402.906 20.1211C402.906 16.7546 403.728 13.7653 405.349 11.1024L401.932 9.02261C399.907 12.3493 398.906 16.0657 398.906 20.1211H402.906ZM405.344 11.1107C407 8.41964 409.142 6.31042 411.784 4.75463L409.755 1.30787C406.537 3.2026 403.927 5.78088 401.937 9.01431L405.344 11.1107ZM411.79 4.75122C414.443 3.17704 417.297 2.39453 420.389 2.39453V-1.60547C416.58 -1.60547 413.021 -0.630168 409.749 1.31128L411.79 4.75122ZM420.389 2.39453C423.589 2.39453 426.49 3.1824 429.134 4.75122L431.175 1.31128C427.894 -0.635528 424.285 -1.60547 420.389 -1.60547V2.39453ZM429.12 4.74291C431.802 6.36376 433.926 8.50326 435.514 11.1808L438.954 9.13952C437.028 5.89257 434.432 3.27947 431.189 1.31959L429.12 4.74291ZM435.523 11.1947C437.112 13.825 437.92 16.7836 437.92 20.1211H441.92C441.92 16.1019 440.937 12.4198 438.946 9.12564L435.523 11.1947ZM437.92 20.1211V28.3242H441.92V20.1211H437.92ZM437.92 28.3242C437.92 28.1461 437.966 27.6452 438.408 27.203C438.85 26.7607 439.351 26.7148 439.529 26.7148V30.7148C439.968 30.7148 440.664 30.6039 441.236 30.0314C441.809 29.4589 441.92 28.7627 441.92 28.3242H437.92ZM439.529 26.7148H428.299V30.7148H439.529V26.7148ZM428.299 26.7148C428.477 26.7148 428.978 26.7607 429.42 27.203C429.862 27.6452 429.908 28.1461 429.908 28.3242H425.908C425.908 28.7627 426.019 29.4589 426.592 30.0314C427.164 30.6039 427.86 30.7148 428.299 30.7148V26.7148ZM429.908 28.3004L429.81 20.0973L425.811 20.1449L425.908 28.348L429.908 28.3004ZM429.811 20.1211C429.811 17.3228 428.918 14.8844 427.027 12.994L424.199 15.8224C425.238 16.8617 425.811 18.2318 425.811 20.1211H429.811ZM427.027 12.994C425.199 11.1652 422.953 10.2109 420.389 10.2109V14.2109C421.861 14.2109 423.098 14.7215 424.199 15.8224L427.027 12.994ZM420.389 10.2109C417.758 10.2109 415.48 11.2412 413.656 13.1868L416.574 15.9226C417.68 14.7432 418.918 14.2109 420.389 14.2109V10.2109ZM413.656 13.1868C411.843 15.1213 410.918 17.4663 410.918 20.1211H414.918C414.918 18.479 415.458 17.1131 416.574 15.9226L413.656 13.1868ZM410.918 20.1211C410.918 22.5778 411.432 24.7906 412.587 26.6464L415.983 24.5332C415.315 23.4594 414.918 22.0264 414.918 20.1211H410.918ZM412.604 26.6732C413.81 28.5449 415.855 30.1424 418.463 31.5493L420.362 28.0289C418.022 26.7665 416.648 25.5645 415.966 24.5064L412.604 26.6732ZM418.518 31.5779C418.734 31.6861 419.297 31.9897 420.253 32.5168L422.185 29.0145C421.252 28.4999 420.611 28.1524 420.307 28.0002L418.518 31.5779ZM420.253 32.5168C421.186 33.0319 422.219 33.6128 423.351 34.2599L425.336 30.787C424.19 30.132 423.139 29.541 422.185 29.0145L420.253 32.5168ZM423.41 34.2922C424.574 34.9062 425.62 35.4699 426.551 35.9836L428.484 32.4813C427.527 31.9533 426.458 31.3777 425.277 30.7547L423.41 34.2922ZM426.599 36.0089C427.537 36.494 428.121 36.7948 428.332 36.9002L430.121 33.3225C429.941 33.2325 429.387 32.9474 428.436 32.456L426.599 36.0089ZM428.251 36.8572C431.35 38.5893 433.733 40.6793 435.458 43.106L438.718 40.7885C436.602 37.8116 433.743 35.3443 430.202 33.3654L428.251 36.8572ZM435.467 43.119C437.131 45.4212 438.018 48.3116 438.018 51.9082H442.018C442.018 47.6272 440.951 43.8769 438.709 40.7756L435.467 43.119ZM438.018 51.9082C438.018 55.396 437.217 58.4621 435.651 61.1578L439.11 63.1664C441.061 59.8075 442.018 56.0376 442.018 51.9082H438.018ZM435.659 61.144C434.036 63.8886 431.898 66.0372 429.231 67.6199L431.273 71.0598C434.53 69.1269 437.145 66.4903 439.102 63.1802L435.659 61.144ZM429.231 67.6199C426.593 69.1852 423.661 69.9766 420.389 69.9766V73.9766C424.343 73.9766 427.986 73.0101 431.273 71.0598L429.231 67.6199Z"
          fill="black"
          mask="url(#path-1-outside-1_31_3)"
        />
      </svg>